<?xml version="1.0" encoding="UTF-8" standalone="no"?>
<!-- Created with Inkscape (http://www.inkscape.org/) -->

<svg
   width="768"
   height="576"
   viewBox="0 0 203.2 152.4"
   version="1.1"
   id="svg945"
   inkscape:version="1.1.1 (3bf5ae0d25, 2021-09-20)"
   sodipodi:docname="CROMA.svg"
   xmlns:inkscape="http://www.inkscape.org/namespaces/inkscape"
   xmlns:sodipodi="http://sodipodi.sourceforge.net/DTD/sodipodi-0.dtd"
   xmlns="http://www.w3.org/2000/svg"
   xmlns:svg="http://www.w3.org/2000/svg">
  <sodipodi:namedview
     id="namedview947"
     pagecolor="#ffffff"
     bordercolor="#666666"
     borderopacity="1.0"
     inkscape:pageshadow="2"
     inkscape:pageopacity="0.0"
     inkscape:pagecheckerboard="0"
     inkscape:document-units="mm"
     showgrid="false"
     units="px"
     inkscape:zoom="0.64052329"
     inkscape:cx="515.20375"
     inkscape:cy="387.18342"
     inkscape:window-width="1920"
     inkscape:window-height="1094"
     inkscape:window-x="-11"
     inkscape:window-y="-11"
     inkscape:window-maximized="1"
     inkscape:current-layer="layer1"
     showguides="false" />
  <defs
     id="defs942">
    <inkscape:path-effect
       effect="spiro"
       id="path-effect3854"
       is_visible="true"
       lpeversion="1" />
    <inkscape:path-effect
       effect="spiro"
       id="path-effect3858"
       is_visible="true"
       lpeversion="1" />
    <inkscape:path-effect
       effect="spiro"
       id="path-effect5462"
       is_visible="true"
       lpeversion="1" />
    <inkscape:path-effect
       effect="spiro"
       id="path-effect10688"
       is_visible="true"
       lpeversion="1" />
    <inkscape:path-effect
       effect="spiro"
       id="path-effect4238"
       is_visible="true"
       lpeversion="1" />
    <inkscape:path-effect
       effect="spiro"
       id="path-effect13190"
       is_visible="true"
       lpeversion="1" />
    <inkscape:path-effect
       effect="spiro"
       id="path-effect1739"
       is_visible="true"
       lpeversion="1" />
    <inkscape:path-effect
       effect="spiro"
       id="path-effect13531"
       is_visible="true"
       lpeversion="1" />
    <inkscape:path-effect
       effect="spiro"
       id="path-effect13289"
       is_visible="true"
       lpeversion="1" />
    <inkscape:path-effect
       effect="spiro"
       id="path-effect13730"
       is_visible="true"
       lpeversion="1" />
  </defs>
  <g
     inkscape:label="Calque 1"
     inkscape:groupmode="layer"
     id="layer1">
    <path
       style="fill:none;fill-opacity:1;stroke:#8f42c5;stroke-width:3.49999;stroke-linecap:round;stroke-linejoin:miter;stroke-miterlimit:4;stroke-dasharray:none;stroke-opacity:1"
       d="M 88.525683,7.5425436 V 69.961426 h 14.951087 l 0.21139,-37.809743"
       id="path3558"
       sodipodi:nodetypes="cccc" />
    <path
       style="fill:none;fill-opacity:1;stroke:#8f42c5;stroke-width:3.49999;stroke-linecap:round;stroke-linejoin:round;stroke-miterlimit:4;stroke-dasharray:none;stroke-opacity:1"
       d="M 88.525683,7.5425436 H 102.333 V 19.960991"
       id="path3560"
       sodipodi:nodetypes="ccc" />
    <path
       style="fill:none;fill-opacity:1;stroke:#8f42c5;stroke-width:3.49999;stroke-linecap:round;stroke-linejoin:miter;stroke-miterlimit:4;stroke-dasharray:none;stroke-opacity:1"
       d="M 124.47374,6.3170629 V 19.634154"
       id="path3562" />
    <path
       style="fill:none;fill-opacity:1;stroke:#8f42c5;stroke-width:3.49999;stroke-linecap:round;stroke-linejoin:miter;stroke-miterlimit:4;stroke-dasharray:none;stroke-opacity:1"
       d="m 124.47374,19.634154 -8.08833,0.08165"
       id="path3848" />
    <path
       style="fill:none;fill-opacity:1;stroke:#8f42c5;stroke-width:3.49999;stroke-linecap:round;stroke-linejoin:miter;stroke-miterlimit:4;stroke-dasharray:none;stroke-opacity:1"
       d="m 124.47374,6.3170629 -7.10792,0.1632919"
       id="path3850" />
    <path
       style="fill:none;fill-opacity:1;stroke:#8f42c5;stroke-width:3.49999;stroke-linecap:round;stroke-linejoin:miter;stroke-miterlimit:4;stroke-dasharray:none;stroke-opacity:1"
       d="m 117.36582,6.4803548 c -2.2864,0.3478162 -4.47788,1.3012766 -6.29094,2.7370387 -2.41155,1.9097065 -4.08061,4.5738575 -5.88241,7.0670605 -0.90957,1.258597 -1.86352,2.485124 -2.85947,3.676537"
       id="path3852"
       inkscape:path-effect="#path-effect3854"
       inkscape:original-d="m 117.36582,6.4803548 c -2.04165,0.572756 -4.36423,1.210892 -6.29094,2.7370387 -3.20964,2.5423855 -3.72721,4.2116665 -5.88241,7.0670605 -1.22779,1.626685 -1.38804,1.553172 -2.85947,3.676537"
       sodipodi:nodetypes="cssc" />
    <path
       style="fill:none;fill-opacity:1;stroke:#8f42c5;stroke-width:3.49999;stroke-linecap:round;stroke-linejoin:miter;stroke-miterlimit:4;stroke-dasharray:none;stroke-opacity:1"
       d="m 116.38541,19.7158 c -2.21604,-0.155217 -4.47622,0.395366 -6.3726,1.552381 -2.62304,1.60036 -4.46614,4.286858 -5.47392,7.189592 -0.41522,1.195966 -0.70103,2.436811 -0.85085,3.69391"
       id="path3856"
       inkscape:path-effect="#path-effect3858"
       inkscape:original-d="m 116.38541,19.7158 c -3.84372,-0.341901 -4.84822,0.78013 -6.3726,1.552381 -1.9751,1.000574 -4.08423,4.379483 -5.47392,7.189592 -0.60104,1.215354 -0.74535,3.176788 -0.85085,3.69391"
       sodipodi:nodetypes="cssc" />
    <path
       style="fill:none;fill-opacity:1;stroke:#8f42c5;stroke-width:3.49999;stroke-linecap:round;stroke-linejoin:round;stroke-miterlimit:4;stroke-dasharray:none;stroke-opacity:1"
       d="m 121.94104,58.319185 12.96987,12.969874"
       id="path5264" />
    <path
       style="fill:none;fill-opacity:1;stroke:#8f42c5;stroke-width:3.49999;stroke-linecap:round;stroke-linejoin:round;stroke-miterlimit:4;stroke-dasharray:none;stroke-opacity:1"
       d="m 108.97116,71.289059 12.96988,12.969874"
       id="path5264-4"
       inkscape:transform-center-x="-6.1702886"
       inkscape:transform-center-y="-1.3553981" />
    <path
       style="fill:none;fill-opacity:1;stroke:#8f42c5;stroke-width:3.49999;stroke-linecap:round;stroke-linejoin:round;stroke-miterlimit:4;stroke-dasharray:none;stroke-opacity:1"
       d="M 121.94104,58.319185 108.97116,71.289059"
       id="path5264-5" />
    <path
       style="fill:none;fill-opacity:1;stroke:#8f42c5;stroke-width:3.49999;stroke-linecap:round;stroke-linejoin:round;stroke-miterlimit:4;stroke-dasharray:none;stroke-opacity:1"
       d="M 134.91091,71.289059 121.94104,84.258933"
       id="path5264-5-3" />
    <path
       style="fill:none;fill-opacity:1;stroke:#8f42c5;stroke-width:3.49999;stroke-linecap:round;stroke-linejoin:round;stroke-miterlimit:4;stroke-dasharray:none;stroke-opacity:1"
       d="m 19.652487,79.765461 v 62.418819 h 15.849818 v -39.3794 c 0.140825,-1.86946 0.72904,-3.70371 1.701689,-5.30642 1.361919,-2.244139 3.455233,-4.000638 5.814725,-5.151196 1.795718,-0.875645 3.775692,-1.418675 5.773376,-1.393836 2.201565,0.02737 4.396832,0.763635 6.137708,2.111592 1.639773,1.269673 2.860481,3.071671 3.431403,5.065405 l 0.180539,43.890505 h 15.359616 v -37.58206 c 0.326204,-3.13103 1.661097,-6.149057 3.758193,-8.49681 1.66996,-1.869562 3.82276,-3.31759 6.209207,-4.084989 2.603432,-0.837174 5.530036,-0.833071 8.006622,0.326774 2.130092,0.997573 3.829084,2.838214 4.750436,5.002367 0.921351,2.164152 1.035222,4.573788 1.050289,6.925858 l 0.244938,38.23566 H 112.46365 V 96.595671 c 0.0178,-3.663603 -1.19216,-7.322587 -3.39056,-10.253342 -1.87736,-2.502758 -4.44754,-4.461171 -7.31215,-5.719047 -3.757492,-1.649947 -8.031296,-2.09398 -12.050758,-1.266335 -3.796283,0.781691 -7.332982,2.675213 -10.212518,5.269646 -2.494784,2.247775 -4.512657,5.022355 -5.882412,8.088331"
       id="path5460"
       inkscape:path-effect="#path-effect5462"
       inkscape:original-d="m 19.652487,79.765461 v 62.418819 h 15.849818 v -39.3794 c 0,0 0.419629,-4.180117 1.701689,-5.30642 0.943774,-0.829118 2.893242,-3.978849 5.814725,-5.151196 2.564247,-1.028993 4.820846,-1.409881 5.773376,-1.393836 2.595703,0.04367 4.836993,1.046429 6.137708,2.111592 1.364374,1.117253 3.151993,3.686221 3.431403,5.065405 0,0 0.180539,29.402355 0.180539,43.890505 h 15.359616 v -37.58206 c 0,0 2.50631,-7.079841 3.758193,-8.49681 1.251904,-1.416969 4.140336,-2.722482 6.209207,-4.084989 2.068903,-1.362506 5.516768,-0.637914 8.006622,0.326774 5.095784,1.974377 5.782465,9.074385 5.800725,11.928225 l 0.244938,38.23566 h 14.542604 c 0,-15.25068 0.64646,-43.114578 0,-45.752059 0.55396,-0.388103 -1.1463,-7.264055 -3.39056,-10.253342 -1.10206,-1.46795 -4.75606,-4.618947 -7.31215,-5.719047 -1.845106,-0.794086 -7.972257,-2.605899 -12.050758,-1.266335 -2.004313,0.658294 -5.420786,1.08067 -10.212518,5.269646 -2.990414,2.614253 -4.247572,5.365849 -5.882412,8.088331"
       sodipodi:nodetypes="ccccssssccccsssscccssssc" />
    <path
       style="fill:none;fill-opacity:1;stroke:#8f42c5;stroke-width:3.49999;stroke-linecap:round;stroke-linejoin:round;stroke-miterlimit:4;stroke-dasharray:none;stroke-opacity:1"
       d="M 19.652487,79.765461 H 34.399354 V 92.551505"
       id="path10684" />
    <path
       style="fill:none;fill-opacity:1;stroke:#8f42c5;stroke-width:3.49999;stroke-linecap:round;stroke-linejoin:round;stroke-miterlimit:4;stroke-dasharray:none;stroke-opacity:1"
       d="m 34.399354,92.551505 c 1.002585,-1.678736 2.137435,-3.278457 3.390567,-4.779454 2.646861,-3.170399 5.889839,-5.936242 9.722313,-7.475543 5.507246,-2.211969 12.036997,-1.640186 17.116173,1.429754 3.116204,1.883487 5.674785,4.637624 7.475553,7.802349 0.581896,1.022643 1.087524,2.088672 1.511298,3.186313"
       id="path10686"
       inkscape:path-effect="#path-effect10688"
       inkscape:original-d="m 34.399354,92.551505 c 1.131024,-1.592318 2.278947,-3.173053 3.390567,-4.779454 1.107413,-1.600324 4.287043,-5.620217 9.722313,-7.475543 3.868697,-1.320576 12.525321,-1.989661 17.116173,1.429754 6.287072,4.682808 5.755126,4.8561 7.475553,7.802349 1.168043,2.000294 0.857403,2.072541 1.511298,3.186313"
       sodipodi:nodetypes="cssssc" />
    <path
       style="fill:none;fill-opacity:1;stroke:#8f42c5;stroke-width:3.49999;stroke-linecap:round;stroke-linejoin:round;stroke-miterlimit:4;stroke-dasharray:none;stroke-opacity:1"
       d="m 130.92804,37.444779 c 0.20457,-3.862975 0.95895,-7.694387 2.2059,-11.35629 1.94359,-5.707718 5.20112,-11.120957 10.0491,-14.706022 4.05263,-2.9969042 9.03569,-4.5777906 14.05241,-5.0654041 5.39076,-0.5239697 10.90294,0.1766291 15.97239,2.083333 4.94116,1.8584511 9.52829,4.9379471 12.54098,9.2729881 3.11905,4.488081 4.37331,10.010033 4.98369,15.44131 0.47052,4.18671 0.59686,8.43492 -0.007,12.604481 -0.60389,4.169561 -1.95857,8.268679 -4.28223,11.783013 -2.18253,3.300889 -5.17485,6.019653 -8.49681,8.169976 -4.7519,3.075934 -10.25488,5.035074 -15.90229,5.420708 -5.64741,0.385634 -11.42759,-0.831491 -16.32841,-3.664148 -5.65997,-3.271443 -10.00923,-8.628734 -12.41841,-14.706022 -1.91393,-4.828004 -2.64393,-10.091659 -2.36929,-15.277923 z"
       id="path4236"
       inkscape:path-effect="#path-effect4238"
       inkscape:original-d="m 130.92804,37.444779 c 0.59773,-9.370679 0.62611,-6.404082 2.2059,-11.35629 1.85143,-5.803731 8.23491,-13.524149 10.0491,-14.706022 7.99425,-5.2079998 9.19539,-4.0872664 14.05241,-5.0654041 4.94759,-0.9963973 11.5231,1.0159543 15.97239,2.083333 5.46813,1.3118102 9.41929,5.4254701 12.54098,9.2729881 3.4247,4.220971 3.23251,9.551946 4.98369,15.44131 1.98625,6.680002 -0.6962,19.343988 -4.28926,24.387494 -3.95296,5.548698 -3.6716,4.115938 -8.49681,8.169976 -4.94037,4.15078 -19.67029,8.855614 -32.2307,1.75656 -8.80906,-4.978822 -10.91337,-11.547146 -12.41841,-14.706022 -2.6729,-5.610059 -2.69524,-10.167898 -2.36929,-15.277923 z"
       sodipodi:nodetypes="ssssssssssss" />
    <path
       style="fill:none;fill-opacity:1;stroke:#8f42c5;stroke-width:3.49999;stroke-linecap:round;stroke-linejoin:round;stroke-miterlimit:4;stroke-dasharray:none;stroke-opacity:1"
       d="m 160.99012,16.291131 c 2.25779,-0.107032 4.58774,0.199272 6.57275,1.280386 1.72412,0.939026 3.10786,2.420384 4.17085,4.070969 1.61936,2.514516 2.53683,5.429506 3.03049,8.379323 0.49367,2.949816 0.57948,5.950978 0.64598,8.941079 0.0685,3.079007 0.11342,6.198347 -0.61275,9.191279 -0.7404,3.051582 -2.30196,5.922013 -4.57519,8.088299 -2.55634,2.43608 -6.02069,3.934235 -9.55156,3.982333 -3.53087,0.0481 -7.08533,-1.391386 -9.48457,-3.982333 -1.45107,-1.567017 -2.46364,-3.504243 -3.13477,-5.531737 -0.67114,-2.027494 -1.01261,-4.14997 -1.23617,-6.273922 -0.54143,-5.144032 -0.40069,-10.377444 0.65358,-15.44131 0.68014,-3.266852 1.81331,-6.580456 4.16669,-8.946152 2.42534,-2.438031 5.91959,-3.595372 9.35467,-3.758214 z"
       id="path4232-7-7"
       inkscape:path-effect="#path-effect13190"
       inkscape:original-d="m 160.99012,16.291131 c 4.86544,0.109178 5.7105,1.002821 6.57275,1.280386 1.91286,0.615731 2.83983,2.326245 4.17085,4.070969 5.10493,6.691742 4.70727,28.582925 3.67647,17.320402 -0.98782,-10.79287 0.65671,4.258375 -0.61275,9.191279 -1.31036,5.091797 -2.68866,5.833162 -4.57519,8.088299 -3.99071,4.77053 -13.12047,6.153733 -19.03613,0 -2.20891,-2.297796 -3.96448,-8.077761 -4.37094,-11.805659 -0.78551,-7.204371 -0.70497,-9.31571 0.65358,-15.44131 1.09472,-4.936037 1.56807,-5.701863 4.16669,-8.946152 0.59238,-0.73956 5.49478,-3.844797 9.35467,-3.758214 z"
       sodipodi:nodetypes="sssssssssss" />
    <path
       style="fill:none;fill-opacity:1;stroke:#8f42c5;stroke-width:3.5;stroke-linecap:round;stroke-linejoin:round;stroke-miterlimit:4;stroke-dasharray:none;stroke-opacity:1"
       d="m 73.24776,48.229199 c 0.146912,3.946859 -0.921208,7.930644 -3.022911,11.274612 -2.266239,3.605755 -5.674968,6.415027 -9.477211,8.333427 -2.112376,1.065788 -4.354555,1.872018 -6.658558,2.41017 -5.439188,1.270446 -11.186628,1.025055 -16.585116,-0.408514 -3.81263,-1.012444 -7.506702,-2.633413 -10.580172,-5.10626 -4.606939,-3.706644 -7.576477,-9.135758 -9.313805,-14.78773 -1.555389,-5.060079 -2.20838,-10.415646 -1.715705,-15.686406 0.570389,-6.10216 2.723785,-12.113102 6.53601,-16.911919 2.842003,-3.577505 6.567224,-6.43504 10.723141,-8.333427 6.192069,-2.8284843 13.307935,-3.4958818 19.970965,-2.1008647 5.645688,1.1820194 11.090663,3.9102757 14.813276,8.3163067 3.100987,3.670284 4.892067,8.425045 4.983287,13.229084"
       id="path1737"
       sodipodi:nodetypes="csssssssssssc"
       inkscape:original-d="m 73.24776,48.229199 c -0.897865,3.922456 -2.123371,7.353865 -3.022911,11.274612 -0.899536,3.920779 -6.3173,5.556452 -9.477211,8.333427 -3.159901,2.776976 -4.25646,2.328967 -6.658558,2.41017 -2.722912,0.09209 -11.126099,-0.388514 -16.585116,-0.408514 -5.530875,-0.01899 -7.03899,-3.253561 -10.580172,-5.10626 -3.541173,-1.852698 -6.208369,-9.857643 -9.313805,-14.78773 -3.105446,-4.930056 -1.142965,-10.456761 -1.715705,-15.686406 -0.572734,-5.229646 2.663396,-12.271421 6.53601,-16.911919 3.102164,-3.717297 5.719335,-5.020974 10.723141,-8.333427 8.265446,-5.4716091 19.12305,-2.2169096 19.970965,-2.1008647 6.851911,0.9376628 14.813276,8.3163067 14.813276,8.3163067 1.213582,1.006302 3.936142,5.121101 4.983287,13.229084"
       inkscape:path-effect="#path-effect1739" />
    <path
       style="fill:none;fill-opacity:1;stroke:#8f42c5;stroke-width:3.5;stroke-linecap:round;stroke-linejoin:round;stroke-miterlimit:4;stroke-dasharray:none;stroke-opacity:1"
       d="m 58.378342,28.294386 14.542619,0.163292"
       id="path1745" />
    <path
       style="fill:none;fill-opacity:1;stroke:#8f42c5;stroke-width:3.5;stroke-linecap:round;stroke-linejoin:round;stroke-miterlimit:4;stroke-dasharray:none;stroke-opacity:1"
       d="M 59.19534,48.392618 73.24776,48.229326"
       id="path1747"
       sodipodi:nodetypes="cc" />
    <path
       style="fill:none;fill-opacity:1;stroke:#8f42c5;stroke-width:3.5;stroke-linecap:butt;stroke-linejoin:round;stroke-miterlimit:4;stroke-dasharray:none;stroke-opacity:1"
       d="m 58.378342,28.294386 c -0.234758,-1.33541 -0.633581,-2.641896 -1.184652,-3.880747 -0.597635,-1.343532 -1.373686,-2.60626 -2.287603,-3.758215 -0.861961,-1.086466 -1.861445,-2.086542 -3.063755,-2.777798 -1.286133,-0.739449 -2.767228,-1.100851 -4.24841,-1.184658 -0.786708,-0.04451 -1.576147,-0.01321 -2.361366,0.05253 -1.626996,0.136221 -3.248833,0.422505 -4.787391,0.968866 -1.684077,0.598037 -3.268827,1.515971 -4.534354,2.777798 -1.656412,1.651569 -2.705125,3.822335 -3.43141,6.045821 -1.302506,3.98756 -1.652315,8.223997 -1.715698,12.418415 -0.05623,3.720817 0.111648,7.483595 1.102949,11.070371 0.621487,2.248696 1.583656,4.440111 3.104607,6.209176 1.437415,1.671903 3.347337,2.920698 5.433055,3.635683 2.444073,0.837829 5.130211,0.944544 7.638958,0.326773 2.233377,-0.549962 4.319752,-1.66603 6.045808,-3.186281 1.608693,-1.416881 2.903914,-3.177692 3.839902,-5.106259 0.544523,-1.121969 0.9698,-2.301767 1.266358,-3.513119"
       id="path13529"
       inkscape:original-d="m 58.378342,28.294386 c -0.394046,-1.29276 -0.788931,-2.586342 -1.184652,-3.880747 -0.395723,-1.294437 -1.524235,-2.504633 -2.287603,-3.758215 -0.763377,-1.253582 -2.041671,-1.851053 -3.063755,-2.777798 -1.022094,-0.926777 -2.831432,-0.788928 -4.24841,-1.184658 -1.416966,-0.39573 -1.573407,0.03576 -2.361366,0.05253 -0.78796,0.01582 -3.190756,0.646744 -4.787391,0.968866 -1.596634,0.322121 -3.022068,1.852699 -4.534354,2.777798 -1.512293,0.9251 -2.286765,4.031381 -3.43141,6.045821 -1.144638,2.014409 -1.142964,8.279756 -1.715698,12.418415 -0.572743,4.138628 0.73614,7.381081 1.102949,11.070371 0.366818,3.689259 2.070576,4.140305 3.104607,6.209176 1.034033,2.068903 3.622875,2.424632 5.433055,3.635683 1.810186,1.21105 5.093477,0.218672 7.638958,0.326773 2.54549,0.108229 4.031374,-2.123364 6.045808,-3.186281 2.014437,-1.062948 2.560779,-3.40334 3.839902,-5.106259 1.279133,-1.70292 0.845074,-2.341246 1.266358,-3.513119"
       inkscape:path-effect="#path-effect13531" />
    <path
       style="fill:none;fill-opacity:1;stroke:#8f42c5;stroke-width:3.49999;stroke-linecap:butt;stroke-linejoin:round;stroke-miterlimit:4;stroke-dasharray:none;stroke-opacity:1"
       d="m 157.08605,89.997948 c 2.25778,-0.107028 4.58772,0.199282 6.57272,1.280386 1.72413,0.939025 3.10789,2.420381 4.17088,4.07097 1.61937,2.514513 2.53684,5.429506 3.0305,8.379326 0.49366,2.94981 0.57948,5.95098 0.64597,8.94108 0.0685,3.079 0.11342,6.19834 -0.61275,9.19127 -0.7404,3.05158 -2.30196,5.92201 -4.57518,8.0883 -2.55634,2.43608 -6.02069,3.93424 -9.55156,3.98234 -3.53087,0.0481 -7.08534,-1.39139 -9.48458,-3.98234 -1.45107,-1.56702 -2.46364,-3.50424 -3.13477,-5.53174 -0.67113,-2.02749 -1.01261,-4.14997 -1.23617,-6.27392 -0.54144,-5.14403 -0.40069,-10.37745 0.65358,-15.44131 0.68014,-3.266851 1.81332,-6.580452 4.1667,-8.946147 2.42534,-2.43803 5.91959,-3.595378 9.35466,-3.758215 z"
       id="path4232-7-1"
       inkscape:path-effect="#path-effect13289"
       inkscape:original-d="m 157.08605,89.997948 c 4.86544,0.109178 5.71047,1.002822 6.57272,1.280386 1.91289,0.615731 2.83986,2.326246 4.17088,4.07097 5.1049,6.691746 4.70727,28.582926 3.67647,17.320406 -0.98785,-10.79287 0.65668,4.25837 -0.61275,9.19127 -1.31036,5.0918 -2.68869,5.83317 -4.57518,8.0883 -3.99072,4.77053 -13.12051,6.15374 -19.03614,0 -2.20891,-2.29779 -3.96452,-8.07776 -4.37094,-11.80566 -0.78551,-7.20437 -0.70501,-9.31571 0.65358,-15.44131 1.09472,-4.936032 1.56807,-5.701859 4.1667,-8.946147 0.59234,-0.739561 5.49474,-3.844797 9.35466,-3.758215 z"
       sodipodi:nodetypes="sssssssssss" />
    <path
       style="fill:none;fill-opacity:1;stroke:#8f42c5;stroke-width:3.49999;stroke-linecap:round;stroke-linejoin:round;stroke-miterlimit:4;stroke-dasharray:none;stroke-opacity:1"
       d="m 172.34999,130.50125 0.0816,11.76477 h 14.2158 V 79.928848 h -14.5426 V 92.02049"
       id="path13726"
       sodipodi:nodetypes="cccccc" />
    <path
       style="fill:none;fill-opacity:1;stroke:#8f42c5;stroke-width:3.49999;stroke-linecap:round;stroke-linejoin:round;stroke-miterlimit:4;stroke-dasharray:none;stroke-opacity:1"
       d="m 172.10489,92.02049 c -0.82491,-1.729734 -1.87095,-3.353863 -3.1046,-4.82034 -1.41946,-1.687347 -3.08463,-3.163166 -4.90202,-4.411794 -1.65225,-1.135167 -3.44106,-2.088426 -5.35136,-2.696121 -3.0011,-0.954694 -6.2194,-1.03207 -9.35466,-0.73513 -3.26964,0.309667 -6.55921,1.040218 -9.39549,2.696089 -2.64932,1.546717 -4.79946,3.84367 -6.53601,6.372626 -2.099,3.056804 -3.63907,6.483456 -4.65693,10.0491 -0.97144,3.40301 -1.471,6.92714 -1.7157,10.45762 -0.4294,6.19518 -0.0596,12.5391 2.04251,18.38252 1.54607,4.29767 4.05269,8.29757 7.5164,11.27465 2.42031,2.08027 5.28249,3.63861 8.33342,4.57521 4.24721,1.30385 8.8609,1.38976 13.15371,0.24494 2.82581,-1.09813 5.46279,-2.68033 7.76152,-4.65693 2.66495,-2.2915 4.87209,-5.11328 6.45431,-8.25168"
       id="path13728"
       inkscape:path-effect="#path-effect13730"
       inkscape:original-d="m 172.10489,92.02049 c -1.03402,-1.605957 -2.0689,-3.212706 -3.1046,-4.82034 -1.0357,-1.607603 -3.26717,-2.940363 -4.90202,-4.411794 -1.63482,-1.471431 -3.42438,-1.641337 -5.35136,-2.696121 -1.9964,-1.09279 -6.95541,-0.748105 -9.35466,-0.73513 -2.9148,-0.08259 -6.51722,0.992188 -9.39549,2.696089 -4.66376,2.7609 -5.51585,5.07819 -6.53601,6.372626 -1.88349,2.389854 -3.53958,6.53076 -4.65693,10.0491 -0.77196,2.4308 -0.64301,1.76102 -1.7157,10.45762 -0.47247,3.83043 -0.003,12.64148 2.04251,18.38252 2.27675,6.38915 5.63357,9.76283 7.5164,11.27465 4.57806,3.6759 5.82854,3.3465 8.33342,4.57521 3.52277,1.72801 9.42359,1.30807 13.15371,0.24494 3.84502,-0.53437 5.26733,-2.851 7.76152,-4.65693 3.10306,-2.24675 4.59822,-5.11163 6.45431,-8.25168"
       sodipodi:nodetypes="cssscssssssscsc" />
    <path
       style="fill:none;fill-opacity:1;stroke:#8f42c5;stroke-width:3.5;stroke-linecap:round;stroke-linejoin:round;stroke-miterlimit:4;stroke-dasharray:none;stroke-opacity:1"
       d="m 44.828157,70.567263 c -4.304769,-0.25538 -8.924444,-1.388584 -12.536233,-3.0753 -4.29518,-2.005867 -7.417948,-4.692869 -10.050746,-8.648207 -0.805954,-1.210825 -1.253835,-1.985104 -1.92982,-3.336223 -2.24979,-4.496787 -3.693373,-9.955678 -4.049672,-15.313869 -0.075,-1.125828 -0.075,-3.77236 -3.8e-4,-4.862587 0.311394,-4.541605 1.405007,-8.714568 3.293529,-12.565126 1.302728,-2.656151 2.933148,-4.990308 4.938031,-7.069306 5.079075,-5.26683 11.903667,-8.398301 19.52652,-8.959791 1.041904,-0.07689 3.596787,-0.07689 4.595654,-5.38e-4 2.758844,0.211394 5.397754,0.734592 7.858997,1.55833 7.537662,2.522735 12.762975,7.465227 14.958936,14.149279 0.557815,1.697825 0.794808,2.916059 1.010891,5.195944 l 0.03478,0.367849 -3.802039,-0.04367 c -2.091121,-0.02531 -5.177087,-0.05949 -6.857666,-0.07911 l -3.05558,-0.03545 -0.18703,-0.758516 c -0.612309,-2.48438 -1.717888,-4.708124 -3.371123,-6.780572 -1.890734,-2.37017 -3.884321,-3.574859 -6.53541,-3.949259 -1.930106,-0.272471 -4.525119,-0.09114 -6.845827,0.478894 -3.460237,0.849846 -6.082847,2.632924 -7.823202,5.319046 -1.624408,2.507069 -2.791754,6.290473 -3.324321,10.77423 -0.169621,1.428614 -0.263609,2.898051 -0.331964,5.189646 -0.158545,5.31731 0.246521,9.3028 1.292254,12.71927 0.46478,1.51843 1.275101,3.272231 2.0427,4.421132 3.930145,5.8824 12.077844,7.530605 18.439049,3.730017 1.160385,-0.693291 1.914718,-1.288516 2.967293,-2.341433 1.337887,-1.338332 2.199977,-2.517703 3.06425,-4.192145 0.440578,-0.853576 0.939087,-2.079246 1.213492,-2.983559 l 0.18671,-0.614967 1.217913,-0.03415 c 0.669875,-0.01902 2.777737,-0.0478 4.684168,-0.06425 1.906437,-0.01583 4.347775,-0.04655 5.425223,-0.06674 l 1.95896,-0.03672 -0.03985,0.93497 c -0.192721,4.510596 -1.770986,8.568209 -4.652238,11.961358 -0.298732,0.351839 -0.935664,1.023039 -1.415382,1.491561 -5.338668,5.214139 -13.50396,8.017724 -21.90071,7.519682 z"
       id="path22711" />
  </g>
</svg>
