<?xml version="1.0" encoding="UTF-8" standalone="no"?>
<!-- Created with Inkscape (http://www.inkscape.org/) -->

<svg
   width="768"
   height="576"
   viewBox="0 0 203.2 152.4"
   version="1.1"
   id="svg945"
   inkscape:version="1.1.1 (3bf5ae0d25, 2021-09-20)"
   sodipodi:docname="CROMA.svg"
   xmlns:inkscape="http://www.inkscape.org/namespaces/inkscape"
   xmlns:sodipodi="http://sodipodi.sourceforge.net/DTD/sodipodi-0.dtd"
   xmlns="http://www.w3.org/2000/svg"
   xmlns:svg="http://www.w3.org/2000/svg">
  <sodipodi:namedview
     id="namedview947"
     pagecolor="#ffffff"
     bordercolor="#666666"
     borderopacity="1.0"
     inkscape:pageshadow="2"
     inkscape:pageopacity="0.0"
     inkscape:pagecheckerboard="0"
     inkscape:document-units="mm"
     showgrid="false"
     units="px"
     inkscape:zoom="0.64052329"
     inkscape:cx="515.20375"
     inkscape:cy="387.18342"
     inkscape:window-width="2880"
     inkscape:window-height="1514"
     inkscape:window-x="2869"
     inkscape:window-y="-11"
     inkscape:window-maximized="1"
     inkscape:current-layer="layer1"
     showguides="false" />
  <defs
     id="defs942">
    <inkscape:path-effect
       effect="spiro"
       id="path-effect3854"
       is_visible="true"
       lpeversion="1" />
    <inkscape:path-effect
       effect="spiro"
       id="path-effect3858"
       is_visible="true"
       lpeversion="1" />
    <inkscape:path-effect
       effect="spiro"
       id="path-effect5462"
       is_visible="true"
       lpeversion="1" />
    <inkscape:path-effect
       effect="spiro"
       id="path-effect10688"
       is_visible="true"
       lpeversion="1" />
    <inkscape:path-effect
       effect="spiro"
       id="path-effect4238"
       is_visible="true"
       lpeversion="1" />
    <inkscape:path-effect
       effect="spiro"
       id="path-effect13190"
       is_visible="true"
       lpeversion="1" />
    <inkscape:path-effect
       effect="spiro"
       id="path-effect1739"
       is_visible="true"
       lpeversion="1" />
    <inkscape:path-effect
       effect="spiro"
       id="path-effect13531"
       is_visible="true"
       lpeversion="1" />
    <inkscape:path-effect
       effect="spiro"
       id="path-effect13289"
       is_visible="true"
       lpeversion="1" />
    <inkscape:path-effect
       effect="spiro"
       id="path-effect13730"
       is_visible="true"
       lpeversion="1" />
  </defs>
  <g
     inkscape:label="Calque 1"
     inkscape:groupmode="layer"
     id="layer1">
    <g
       id="g16"
       transform="matrix(0.7407759,0,0,0.7407759,-12.32701,-35.084922)"
       style="fill:#9683d7;fill-opacity:1">
      <path
         class="cls-1"
         d="m 118.55,120.77 c -2.75,18.98 -15.46,30 -35.21,30 -24.03,0 -38.73,-15.16 -38.73,-40.72 0,-25.56 15,-41.94 38.73,-41.94 19.44,0 32.45,10.56 35.21,29.24 L 98.5,98.27 C 96.97,88.32 91.92,82.96 83.35,82.96 c -12.25,0 -18.37,9.64 -18.37,26.48 0,16.84 6.27,26.33 18.37,26.33 8.72,0 13.62,-5.2 15.31,-15 h 19.9 z"
         id="path6"
         style="fill:#9683d7;fill-opacity:1" />
      <path
         class="cls-1"
         d="M 135.54,148.94 V 69.8 h 18.98 v 16.23 c 4.9,-13.01 12.7,-17.91 21.12,-17.91 1.68,0 4.44,0.15 6.43,0.92 v 16.99 h -8.57 c -10.71,0 -18.06,7.19 -18.06,22.04 v 40.87 z"
         id="path8"
         style="fill:#9683d7;fill-opacity:1" />
      <path
         class="cls-1"
         d="m 188.81,109.45 c 0,-26.02 14.85,-41.33 38.58,-41.33 23.73,0 38.42,15.31 38.42,41.33 0,26.02 -14.69,41.33 -38.42,41.33 -23.73,0 -38.58,-15.46 -38.58,-41.33 z m 56.64,0 c 0,-16.84 -5.97,-26.48 -18.06,-26.48 -12.09,0 -18.22,9.64 -18.22,26.48 0,16.84 6.12,26.33 18.22,26.33 12.1,0 18.06,-9.49 18.06,-26.33 z"
         id="path10"
         style="fill:#9683d7;fill-opacity:1" />
      <path
         class="cls-1"
         d="m 147.33,240.48 v -47.91 c 0,-10.41 -4.29,-16.69 -12.71,-16.69 -9.8,0 -16.38,8.73 -16.38,23.42 v 41.18 h -19.9 v -47.91 c 0,-10.41 -4.29,-16.69 -12.71,-16.69 -9.8,0 -16.38,8.73 -16.38,23.42 v 41.18 h -19.9 v -79.14 h 18.98 v 15.92 c 5.36,-12.4 14.08,-17.6 24.95,-17.6 10.87,0 20.97,5.2 24.03,17.45 5.2,-12.09 13.78,-17.45 24.95,-17.45 12.71,0 24.95,7.35 24.95,25.1 v 55.72 h -19.9 z"
         id="path12"
         style="fill:#9683d7;fill-opacity:1" />
      <path
         class="cls-1"
         d="m 241.78,240.48 -0.61,-15.31 c -5.51,12.86 -15.46,17.15 -25.87,17.15 -16.99,0 -31.07,-12.25 -31.07,-41.33 0,-29.08 14.08,-41.33 31.07,-41.33 11.02,0 20.36,4.74 25.87,16.84 v -15.15 h 18.98 v 79.14 h -18.37 z m -1.38,-39.49 c 0,-19.14 -7.35,-26.48 -18.52,-26.48 -9.8,0 -17.3,7.96 -17.3,26.48 0,18.52 7.5,26.33 17.3,26.33 11.17,0 18.52,-7.5 18.52,-26.33 z"
         id="path14"
         style="fill:#9683d7;fill-opacity:1" />
    </g>
    <rect
       class="cls-1"
       x="130.05733"
       y="-39.050323"
       width="16.852652"
       height="16.852652"
       rx="0.91856211"
       ry="0.91856211"
       transform="rotate(45)"
       id="rect18"
       style="fill:#9683d7;stroke-width:0px;fill-opacity:1" />
  </g>
</svg>
